<mxfile host="app.diagrams.net" modified="2024-07-10T09:58:39.816Z" agent="Mozilla/5.0 (Windows NT 10.0; Win64; x64; rv:127.0) Gecko/20100101 Firefox/127.0" etag="IzLgmdCXgYO1H3CAl0No" version="24.6.4" type="github">
  <diagram name="Page-1" id="jIIEvX2qblDGGFT4HYNp">
    <mxGraphModel dx="1909" dy="1015" grid="1" gridSize="10" guides="1" tooltips="1" connect="1" arrows="1" fold="1" page="1" pageScale="1" pageWidth="2339" pageHeight="3300" math="0" shadow="0">
      <root>
        <mxCell id="0" />
        <mxCell id="1" parent="0" />
        <mxCell id="cLSDuqn-RWQRI7Ro-d8l-1" value="&lt;font style=&quot;font-size: 20px;&quot;&gt;User&lt;/font&gt;" style="swimlane;fontStyle=0;childLayout=stackLayout;horizontal=1;startSize=70;horizontalStack=0;resizeParent=1;resizeParentMax=0;resizeLast=0;collapsible=1;marginBottom=0;whiteSpace=wrap;html=1;rotation=0;gradientColor=none;swimlaneFillColor=none;fillColor=default;strokeColor=default;" vertex="1" parent="1">
          <mxGeometry x="160" y="160" width="240" height="420" as="geometry">
            <mxRectangle x="160" y="160" width="80" height="40" as="alternateBounds" />
          </mxGeometry>
        </mxCell>
        <mxCell id="cLSDuqn-RWQRI7Ro-d8l-2" value="Name" style="text;strokeColor=none;fillColor=default;align=left;verticalAlign=middle;spacingLeft=4;spacingRight=4;overflow=hidden;points=[[0,0.5],[1,0.5]];portConstraint=eastwest;rotatable=0;whiteSpace=wrap;html=1;" vertex="1" parent="cLSDuqn-RWQRI7Ro-d8l-1">
          <mxGeometry y="70" width="240" height="60" as="geometry" />
        </mxCell>
        <mxCell id="cLSDuqn-RWQRI7Ro-d8l-3" value="Username" style="text;strokeColor=none;fillColor=default;align=left;verticalAlign=middle;spacingLeft=4;spacingRight=4;overflow=hidden;points=[[0,0.5],[1,0.5]];portConstraint=eastwest;rotatable=0;whiteSpace=wrap;html=1;" vertex="1" parent="cLSDuqn-RWQRI7Ro-d8l-1">
          <mxGeometry y="130" width="240" height="50" as="geometry" />
        </mxCell>
        <mxCell id="cLSDuqn-RWQRI7Ro-d8l-4" value="Phone number" style="text;strokeColor=none;fillColor=default;align=left;verticalAlign=middle;spacingLeft=4;spacingRight=4;overflow=hidden;points=[[0,0.5],[1,0.5]];portConstraint=eastwest;rotatable=0;whiteSpace=wrap;html=1;" vertex="1" parent="cLSDuqn-RWQRI7Ro-d8l-1">
          <mxGeometry y="180" width="240" height="60" as="geometry" />
        </mxCell>
        <mxCell id="cLSDuqn-RWQRI7Ro-d8l-19" value="Email adress" style="text;align=left;verticalAlign=middle;spacingLeft=4;spacingRight=4;overflow=hidden;points=[[0,0.5],[1,0.5]];portConstraint=eastwest;rotatable=0;whiteSpace=wrap;html=1;fillColor=default;" vertex="1" parent="cLSDuqn-RWQRI7Ro-d8l-1">
          <mxGeometry y="240" width="240" height="60" as="geometry" />
        </mxCell>
        <mxCell id="cLSDuqn-RWQRI7Ro-d8l-6" value="Cagnotte" style="text;strokeColor=#6c8ebf;fillColor=#dae8fc;align=left;verticalAlign=middle;spacingLeft=4;spacingRight=4;overflow=hidden;points=[[0,0.5],[1,0.5]];portConstraint=eastwest;rotatable=0;whiteSpace=wrap;html=1;" vertex="1" parent="cLSDuqn-RWQRI7Ro-d8l-1">
          <mxGeometry y="300" width="240" height="60" as="geometry" />
        </mxCell>
        <mxCell id="cLSDuqn-RWQRI7Ro-d8l-7" value="Validation du mail" style="text;strokeColor=#82b366;fillColor=#d5e8d4;align=left;verticalAlign=middle;spacingLeft=4;spacingRight=4;overflow=hidden;points=[[0,0.5],[1,0.5]];portConstraint=eastwest;rotatable=0;whiteSpace=wrap;html=1;" vertex="1" parent="cLSDuqn-RWQRI7Ro-d8l-1">
          <mxGeometry y="360" width="240" height="60" as="geometry" />
        </mxCell>
        <mxCell id="cLSDuqn-RWQRI7Ro-d8l-25" value="" style="endArrow=none;html=1;rounded=0;exitX=0.001;exitY=-0.003;exitDx=0;exitDy=0;exitPerimeter=0;entryX=1.001;entryY=-0.004;entryDx=0;entryDy=0;entryPerimeter=0;" edge="1" parent="cLSDuqn-RWQRI7Ro-d8l-1" source="cLSDuqn-RWQRI7Ro-d8l-7" target="cLSDuqn-RWQRI7Ro-d8l-7">
          <mxGeometry width="50" height="50" relative="1" as="geometry">
            <mxPoint x="60" y="340" as="sourcePoint" />
            <mxPoint x="110" y="290" as="targetPoint" />
          </mxGeometry>
        </mxCell>
        <mxCell id="cLSDuqn-RWQRI7Ro-d8l-26" style="edgeStyle=orthogonalEdgeStyle;rounded=0;orthogonalLoop=1;jettySize=auto;html=1;" edge="1" parent="1" source="cLSDuqn-RWQRI7Ro-d8l-12" target="cLSDuqn-RWQRI7Ro-d8l-6">
          <mxGeometry relative="1" as="geometry" />
        </mxCell>
        <mxCell id="cLSDuqn-RWQRI7Ro-d8l-12" value="&lt;font style=&quot;font-size: 20px;&quot;&gt;Cagnotte&lt;/font&gt;" style="swimlane;fontStyle=0;childLayout=stackLayout;horizontal=1;startSize=70;horizontalStack=0;resizeParent=1;resizeParentMax=0;resizeLast=0;collapsible=1;marginBottom=0;whiteSpace=wrap;html=1;rotation=0;swimlaneFillColor=none;fillColor=#dae8fc;strokeColor=#6c8ebf;" vertex="1" parent="1">
          <mxGeometry x="520" y="395" width="280" height="190" as="geometry">
            <mxRectangle x="520" y="395" width="80" height="40" as="alternateBounds" />
          </mxGeometry>
        </mxCell>
        <mxCell id="cLSDuqn-RWQRI7Ro-d8l-15" value="QuantitÃ© de monnaie" style="text;strokeColor=none;fillColor=default;align=left;verticalAlign=middle;spacingLeft=4;spacingRight=4;overflow=hidden;points=[[0,0.5],[1,0.5]];portConstraint=eastwest;rotatable=0;whiteSpace=wrap;html=1;" vertex="1" parent="cLSDuqn-RWQRI7Ro-d8l-12">
          <mxGeometry y="70" width="280" height="60" as="geometry" />
        </mxCell>
        <mxCell id="cLSDuqn-RWQRI7Ro-d8l-16" value="Balance" style="text;strokeColor=#d6b656;fillColor=#fff2cc;align=left;verticalAlign=middle;spacingLeft=4;spacingRight=4;overflow=hidden;points=[[0,0.5],[1,0.5]];portConstraint=eastwest;rotatable=0;whiteSpace=wrap;html=1;" vertex="1" parent="cLSDuqn-RWQRI7Ro-d8l-12">
          <mxGeometry y="130" width="280" height="60" as="geometry" />
        </mxCell>
        <mxCell id="cLSDuqn-RWQRI7Ro-d8l-29" value="&lt;font style=&quot;font-size: 20px;&quot;&gt;Parties&lt;/font&gt;" style="swimlane;fontStyle=0;childLayout=stackLayout;horizontal=1;startSize=70;horizontalStack=0;resizeParent=1;resizeParentMax=0;resizeLast=0;collapsible=1;marginBottom=0;whiteSpace=wrap;html=1;rotation=0;gradientColor=none;swimlaneFillColor=none;fillColor=default;" vertex="1" parent="1">
          <mxGeometry x="990" y="130" width="240" height="190" as="geometry">
            <mxRectangle x="160" y="160" width="80" height="40" as="alternateBounds" />
          </mxGeometry>
        </mxCell>
        <mxCell id="cLSDuqn-RWQRI7Ro-d8l-30" value="Joueur" style="text;strokeColor=#d79b00;fillColor=#ffe6cc;align=left;verticalAlign=middle;spacingLeft=4;spacingRight=4;overflow=hidden;points=[[0,0.5],[1,0.5]];portConstraint=eastwest;rotatable=0;whiteSpace=wrap;html=1;" vertex="1" parent="cLSDuqn-RWQRI7Ro-d8l-29">
          <mxGeometry y="70" width="240" height="60" as="geometry" />
        </mxCell>
        <mxCell id="cLSDuqn-RWQRI7Ro-d8l-31" value="Banque" style="text;strokeColor=#d79b00;fillColor=#ffe6cc;align=left;verticalAlign=middle;spacingLeft=4;spacingRight=4;overflow=hidden;points=[[0,0.5],[1,0.5]];portConstraint=eastwest;rotatable=0;whiteSpace=wrap;html=1;" vertex="1" parent="cLSDuqn-RWQRI7Ro-d8l-29">
          <mxGeometry y="130" width="240" height="60" as="geometry" />
        </mxCell>
        <mxCell id="cLSDuqn-RWQRI7Ro-d8l-32" value="&lt;font style=&quot;font-size: 20px;&quot;&gt;Score&lt;/font&gt;" style="swimlane;fontStyle=0;childLayout=stackLayout;horizontal=1;startSize=70;horizontalStack=0;resizeParent=1;resizeParentMax=0;resizeLast=0;collapsible=1;marginBottom=0;whiteSpace=wrap;html=1;rotation=0;gradientColor=none;swimlaneFillColor=none;fillColor=default;" vertex="1" parent="1">
          <mxGeometry x="1310" y="130" width="240" height="310" as="geometry">
            <mxRectangle x="160" y="160" width="80" height="40" as="alternateBounds" />
          </mxGeometry>
        </mxCell>
        <mxCell id="cLSDuqn-RWQRI7Ro-d8l-33" value="Joueur" style="text;strokeColor=#d79b00;fillColor=#ffe6cc;align=left;verticalAlign=middle;spacingLeft=4;spacingRight=4;overflow=hidden;points=[[0,0.5],[1,0.5]];portConstraint=eastwest;rotatable=0;whiteSpace=wrap;html=1;" vertex="1" parent="cLSDuqn-RWQRI7Ro-d8l-32">
          <mxGeometry y="70" width="240" height="60" as="geometry" />
        </mxCell>
        <mxCell id="cLSDuqn-RWQRI7Ro-d8l-34" value="Banque" style="text;strokeColor=#d79b00;fillColor=#ffe6cc;align=left;verticalAlign=middle;spacingLeft=4;spacingRight=4;overflow=hidden;points=[[0,0.5],[1,0.5]];portConstraint=eastwest;rotatable=0;whiteSpace=wrap;html=1;" vertex="1" parent="cLSDuqn-RWQRI7Ro-d8l-32">
          <mxGeometry y="130" width="240" height="60" as="geometry" />
        </mxCell>
        <mxCell id="cLSDuqn-RWQRI7Ro-d8l-37" value="Resultat" style="text;align=left;verticalAlign=middle;spacingLeft=4;spacingRight=4;overflow=hidden;points=[[0,0.5],[1,0.5]];portConstraint=eastwest;rotatable=0;whiteSpace=wrap;html=1;fillColor=default;" vertex="1" parent="cLSDuqn-RWQRI7Ro-d8l-32">
          <mxGeometry y="190" width="240" height="60" as="geometry" />
        </mxCell>
        <mxCell id="cLSDuqn-RWQRI7Ro-d8l-38" value="Argent/Balance" style="text;strokeColor=#d6b656;fillColor=#fff2cc;align=left;verticalAlign=middle;spacingLeft=4;spacingRight=4;overflow=hidden;points=[[0,0.5],[1,0.5]];portConstraint=eastwest;rotatable=0;whiteSpace=wrap;html=1;" vertex="1" parent="cLSDuqn-RWQRI7Ro-d8l-32">
          <mxGeometry y="250" width="240" height="60" as="geometry" />
        </mxCell>
        <mxCell id="cLSDuqn-RWQRI7Ro-d8l-35" style="edgeStyle=orthogonalEdgeStyle;rounded=0;orthogonalLoop=1;jettySize=auto;html=1;" edge="1" parent="1" source="cLSDuqn-RWQRI7Ro-d8l-33" target="cLSDuqn-RWQRI7Ro-d8l-30">
          <mxGeometry relative="1" as="geometry" />
        </mxCell>
        <mxCell id="cLSDuqn-RWQRI7Ro-d8l-36" style="edgeStyle=orthogonalEdgeStyle;rounded=0;orthogonalLoop=1;jettySize=auto;html=1;" edge="1" parent="1" source="cLSDuqn-RWQRI7Ro-d8l-34" target="cLSDuqn-RWQRI7Ro-d8l-31">
          <mxGeometry relative="1" as="geometry" />
        </mxCell>
        <mxCell id="cLSDuqn-RWQRI7Ro-d8l-39" style="edgeStyle=orthogonalEdgeStyle;rounded=0;orthogonalLoop=1;jettySize=auto;html=1;" edge="1" parent="1" source="cLSDuqn-RWQRI7Ro-d8l-38" target="cLSDuqn-RWQRI7Ro-d8l-16">
          <mxGeometry relative="1" as="geometry" />
        </mxCell>
      </root>
    </mxGraphModel>
  </diagram>
</mxfile>
